<?xml version="1.0" encoding="utf-8"?>
<!-- Generator: Adobe Adobe Illustrator 24.2.0, SVG Export Plug-In . SVG Version: 6.00 Build 0)  -->
<svg version="1.1" xmlns="http://www.w3.org/2000/svg" xmlns:xlink="http://www.w3.org/1999/xlink" x="0px" y="0px" width="63px"
	 height="18px" viewBox="0 0 63 18" style="enable-background:new 0 0 63 18;" xml:space="preserve">
<style type="text/css">
	.st0{fill:none;stroke:#008CFF;stroke-miterlimit:10;}
	.st1{fill:#008CFF;}
</style>
<g id="레이어_2">
	<path class="st0" d="M0.55,13.78V4.22c0-2.06,1.67-3.72,3.72-3.72h54.55c2.06,0,3.72,1.67,3.72,3.72v9.55
		c0,2.06-1.67,3.72-3.72,3.72H4.28C2.22,17.5,0.55,15.83,0.55,13.78z"/>
</g>
<g id="레이어_1">
	<g>
		<path class="st1" d="M13.54,10.84c0,0.36,0.05,0.54,0.37,0.72c0.24,0.13,0.4,0.2,0.4,0.5c0,0.29-0.02,0.89-2.37,0.89
			c-0.52,0-2.04-0.01-2.04-0.82c-0.05-0.92,0.83,0.1,0.83-2.34c0-0.65-0.14-0.62-0.74-0.62c-1.66,0-1.51,0.05-1.51,1.13
			c0,1.64,0.74,0.98,0.74,1.76c0,0.84-1.74,0.89-2.31,0.89c-0.55,0-2.2-0.05-2.2-0.86c0-0.25,0.18-0.41,0.38-0.5
			c0.43-0.2,0.58-0.17,0.58-2.67c0-3.19-0.05-2.93-0.49-3.17C5.01,5.65,4.8,5.54,4.8,5.3c0-0.92,1.99-1.02,2.65-1.02
			c0.5,0,1.88,0.06,1.88,0.78c0,0.37-0.2,0.5-0.48,0.67C8.56,5.9,8.49,6.05,8.49,7.11c0,0.67,0.31,0.59,0.88,0.59h0.61
			c0.78,0,0.76-0.12,0.76-0.49c0-1.31-0.2-1.39-0.36-1.48C10.15,5.6,9.94,5.5,9.94,5.18c0-0.23-0.05-0.9,2.32-0.9
			c0.56,0,2.14,0.01,2.14,0.85c0,0.26-0.13,0.44-0.37,0.56c-0.36,0.16-0.49,0.12-0.49,2.03V10.84z"/>
		<path class="st1" d="M14.77,10.05c0-2.15,1.87-3.36,3.83-3.36c2.08,0,3.27,1.64,3.27,3.13c0,1.97-2.09,3.17-3.84,3.17
			C16.26,12.99,14.77,11.95,14.77,10.05z M18.08,8.11c-0.39,0-0.61,0.37-0.58,0.72c0.05,0.76,0.26,2.6,1.08,2.65
			c0.45,0.02,0.55-0.36,0.55-0.74C19.13,10.2,18.89,8.11,18.08,8.11z"/>
		<path class="st1" d="M22.91,9.48c0-0.77-0.15-0.98-0.27-1.09c-0.15-0.13-0.32-0.12-0.32-0.43c0-0.89,2.95-1.22,2.97-1.22
			c0.3,0,0.32,0.26,0.32,0.52c0,0.14-0.05,0.55,0.2,0.55c0.12,0,0.31-0.26,0.64-0.54c0.33-0.26,0.81-0.53,1.51-0.53
			c1.41,0,1.43,1.07,1.68,1.07c0.09,0,0.31-0.26,0.65-0.54c0.36-0.26,0.83-0.53,1.44-0.53c1.13,0,1.83,0.62,1.83,1.8v2.53
			c0,0.7,0.44,0.76,0.44,1.1c0,0.76-1.35,0.79-1.82,0.79c-0.39,0-1.77-0.08-1.77-0.71c0-0.44,0.42-0.43,0.42-1.13v-1.08
			c0-0.5,0.06-1.51-0.62-1.51c-0.67,0-0.61,0.82-0.61,1.26v0.74c0,1.48,0.43,1.22,0.43,1.67c0,0.74-1.43,0.76-1.85,0.76
			c-1.79,0-1.89-0.34-1.88-0.67c0.01-0.64,0.61-0.13,0.57-1.56v-0.68c0-0.43,0.06-1.51-0.62-1.51c-0.67,0-0.61,0.82-0.61,1.26v0.97
			c0,1.1,0.32,1.03,0.32,1.46c0,0.31-0.27,0.73-1.9,0.73c-0.46,0-1.87,0.01-1.87-0.62c0-0.54,0.71-0.25,0.71-1.75V9.48z"/>
		<path class="st1" d="M37.26,10.07c-0.13,0-0.32-0.04-0.32,0.17c0,0.6,0.77,1.1,1.33,1.1c0.89,0,1.33-0.54,1.58-0.54
			c0.25,0,0.46,0.37,0.46,0.6c0,0.92-1.68,1.6-2.75,1.6c-2.14,0-3.25-1.56-3.25-3.11c0-1.85,1.56-3.19,3.34-3.19
			c2.02,0,2.91,1.57,2.91,2.47c0,0.79-0.36,0.9-0.74,0.9H37.26z M38.29,8.55c0-0.43-0.26-0.77-0.7-0.77c-0.39,0-0.71,0.41-0.71,0.79
			c0,0.43,0.4,0.34,0.71,0.34C37.91,8.91,38.29,8.99,38.29,8.55z"/>
		<path class="st1" d="M41.95,7.92c0.01-0.49,0.02-1.26-0.04-1.73C41.77,5.16,41,5.6,41,4.94c0-0.46,0.52-0.65,0.9-0.65
			c0.31,0,2.45,0.12,3.44,0.12c0.24,0,2.63-0.12,2.79-0.12c0.46,0,0.95,0.98,0.95,1.8c0,0.41-0.19,0.83-0.64,0.83
			c-0.82,0-0.39-1.24-2.67-1.24c-0.73,0-1.03-0.06-1.03,1.68c0,0.22,0.01,0.42,0.7,0.42c0.92,0,0.33-1.1,1.16-1.1
			c0.68,0,0.73,1.31,0.73,1.77c0,0.56-0.06,2.02-0.87,2.02c-0.76,0,0.02-1.36-1.25-1.36c-0.52,0-0.45,0.1-0.46,1.33
			c-0.05,1.77,1.15,0.79,1.15,1.7c0,0.28,0.11,0.8-2.78,0.8c-1.9,0-2.21-0.28-2.21-0.79c0-0.67,0.64-0.36,0.89-1
			c0.12-0.34,0.15-1.19,0.15-1.58V7.92z"/>
		<path class="st1" d="M52.62,10.61c0,1.42,0.7,0.9,0.7,1.54c0,0.82-1.51,0.82-2.04,0.82c-2.04,0-2.13-0.47-2.13-0.76
			c0-0.43,0.49-0.46,0.63-0.83c0.15-0.42,0.18-2.16,0.05-2.6c-0.11-0.42-0.71-0.29-0.71-0.83c0-0.85,3.02-1.21,3.14-1.21
			c0.36,0,0.37,0.28,0.37,0.53V10.61z M50.27,6.35c-0.5,0-1.03-0.23-1.03-0.82c0-0.79,1.57-1.12,2.18-1.12
			c0.48,0,1.15,0.16,1.15,0.76C52.56,6.11,50.94,6.35,50.27,6.35z"/>
		<path class="st1" d="M57.3,10.23c0,0.8,0.33,1,0.65,1c0.37,0,0.58-0.28,0.8-0.28c0.24,0,0.4,0.34,0.4,0.55
			c0,0.79-1.35,1.49-2.56,1.49c-0.61,0-2.13-0.26-2.13-2.17V8.35c0-0.22,0-0.3-0.06-0.34C54.35,7.98,54.22,8,53.95,8
			c-0.31,0-0.46,0.01-0.52-0.05c-0.08-0.08-0.06-0.2-0.06-0.48c0-0.17-0.04-0.3,0.11-0.4l2.71-1.74c0.27-0.17,0.26-0.13,0.62-0.13
			c0.48,0,0.5-0.05,0.5,0.5c0,0.37-0.02,0.74,0.04,0.89c0.04,0.1,0.12,0.1,0.43,0.1h0.83c0.51,0,0.51,0.04,0.51,0.58
			c0,0.68-0.08,0.73-0.55,0.73h-0.82c-0.42,0-0.44,0.01-0.44,0.44V10.23z"/>
	</g>
</g>
</svg>
